<mxfile host="app.diagrams.net" modified="2022-02-10T06:24:52.326Z" agent="5.0 (Windows NT 10.0; Win64; x64) AppleWebKit/537.36 (KHTML, like Gecko) Chrome/72.0.3626.119 Safari/537.36" etag="-sOyqc4Xx64PIIbHhNsE" version="16.4.7" type="github">
  <diagram id="1S2Vz3SMCuL-4m72MfmH" name="第 1 页">
    <mxGraphModel dx="1422" dy="762" grid="1" gridSize="10" guides="1" tooltips="1" connect="1" arrows="1" fold="1" page="1" pageScale="1" pageWidth="827" pageHeight="1169" math="0" shadow="0">
      <root>
        <mxCell id="0" />
        <mxCell id="1" parent="0" />
        <mxCell id="Jrue9S0TpO6nU7mHcI8S-1" value="&lt;br style=&quot;font-size: 20px;&quot;&gt;提供运营辅助决策" style="rounded=1;whiteSpace=wrap;html=1;fontStyle=1;fontSize=20;fontFamily=Tahoma;" vertex="1" parent="1">
          <mxGeometry y="100" width="920" height="60" as="geometry" />
        </mxCell>
        <mxCell id="Jrue9S0TpO6nU7mHcI8S-2" value="&amp;nbsp; 商业分析" style="rounded=1;whiteSpace=wrap;html=1;fillColor=#4473C5;fontColor=#FFFFFF;fontStyle=1;fontSize=14;" vertex="1" parent="1">
          <mxGeometry x="70" y="80" width="150" height="40" as="geometry" />
        </mxCell>
        <mxCell id="Jrue9S0TpO6nU7mHcI8S-4" value="车辆管控" style="rounded=1;whiteSpace=wrap;html=1;fillColor=#4473C5;fontColor=#FFFFFF;fontStyle=1;fontSize=14;" vertex="1" parent="1">
          <mxGeometry x="280" y="80" width="150" height="40" as="geometry" />
        </mxCell>
        <mxCell id="Jrue9S0TpO6nU7mHcI8S-6" value="安防监控" style="rounded=1;whiteSpace=wrap;html=1;fillColor=#4473C5;fontColor=#FFFFFF;fontStyle=1;fontSize=14;" vertex="1" parent="1">
          <mxGeometry x="490" y="80" width="150" height="40" as="geometry" />
        </mxCell>
        <mxCell id="Jrue9S0TpO6nU7mHcI8S-7" value="旅客服务" style="rounded=1;whiteSpace=wrap;html=1;fillColor=#4473C5;fontColor=#FFFFFF;fontStyle=1;fontSize=14;" vertex="1" parent="1">
          <mxGeometry x="700" y="80" width="150" height="40" as="geometry" />
        </mxCell>
        <mxCell id="Jrue9S0TpO6nU7mHcI8S-8" value="" style="rounded=1;whiteSpace=wrap;html=1;fontFamily=Tahoma;fontSize=16;" vertex="1" parent="1">
          <mxGeometry y="210" width="920" height="250" as="geometry" />
        </mxCell>
        <mxCell id="Jrue9S0TpO6nU7mHcI8S-11" value="" style="shape=flexArrow;endArrow=classic;startArrow=classic;html=1;rounded=0;fontFamily=Tahoma;fontSize=16;fontColor=#FFFFFF;width=40;endSize=9;startSize=9;startWidth=20;fillColor=#cce5ff;strokeColor=#36393d;" edge="1" parent="1">
          <mxGeometry width="100" height="100" relative="1" as="geometry">
            <mxPoint x="224.5" y="220" as="sourcePoint" />
            <mxPoint x="224.5" y="150" as="targetPoint" />
            <Array as="points">
              <mxPoint x="224.5" y="180" />
            </Array>
          </mxGeometry>
        </mxCell>
        <mxCell id="Jrue9S0TpO6nU7mHcI8S-12" value="" style="shape=flexArrow;endArrow=classic;startArrow=classic;html=1;rounded=0;fontFamily=Tahoma;fontSize=16;fontColor=#FFFFFF;width=40;endSize=9;startSize=9;startWidth=20;fillColor=#cce5ff;strokeColor=#36393d;" edge="1" parent="1">
          <mxGeometry width="100" height="100" relative="1" as="geometry">
            <mxPoint x="670" y="220" as="sourcePoint" />
            <mxPoint x="670" y="150" as="targetPoint" />
            <Array as="points">
              <mxPoint x="670" y="180" />
            </Array>
          </mxGeometry>
        </mxCell>
        <mxCell id="Jrue9S0TpO6nU7mHcI8S-13" value="数据平台" style="text;html=1;strokeColor=none;fillColor=none;align=center;verticalAlign=middle;whiteSpace=wrap;rounded=0;fontFamily=Tahoma;fontSize=18;fontColor=#000000;fontStyle=1" vertex="1" parent="1">
          <mxGeometry x="10" y="270" width="30" height="120" as="geometry" />
        </mxCell>
        <mxCell id="Jrue9S0TpO6nU7mHcI8S-14" value="AI" style="rounded=1;whiteSpace=wrap;html=1;fontFamily=Tahoma;fontSize=20;fontColor=#FFFFFF;fillColor=#4473C5;fontStyle=1" vertex="1" parent="1">
          <mxGeometry x="50" y="250" width="40" height="170" as="geometry" />
        </mxCell>
        <mxCell id="Jrue9S0TpO6nU7mHcI8S-15" value="" style="rounded=0;whiteSpace=wrap;html=1;fontFamily=Tahoma;fontSize=20;dashed=1;" vertex="1" parent="1">
          <mxGeometry x="120" y="230" width="780" height="110" as="geometry" />
        </mxCell>
        <mxCell id="Jrue9S0TpO6nU7mHcI8S-16" value="数据" style="text;html=1;strokeColor=none;fillColor=none;align=center;verticalAlign=middle;whiteSpace=wrap;rounded=0;dashed=1;fontFamily=Tahoma;fontSize=20;fontColor=#000000;fontStyle=1" vertex="1" parent="1">
          <mxGeometry x="130" y="260" width="60" height="30" as="geometry" />
        </mxCell>
        <mxCell id="Jrue9S0TpO6nU7mHcI8S-17" value="" style="rounded=0;whiteSpace=wrap;html=1;dashed=1;fontFamily=Tahoma;fontSize=20;fontColor=#000000;fillColor=#FFFFFF;" vertex="1" parent="1">
          <mxGeometry x="190" y="240" width="140" height="90" as="geometry" />
        </mxCell>
        <mxCell id="Jrue9S0TpO6nU7mHcI8S-18" value="" style="rounded=0;whiteSpace=wrap;html=1;dashed=1;fontFamily=Tahoma;fontSize=20;fontColor=#000000;fillColor=#FFFFFF;" vertex="1" parent="1">
          <mxGeometry x="370" y="240" width="140" height="90" as="geometry" />
        </mxCell>
        <mxCell id="Jrue9S0TpO6nU7mHcI8S-19" value="" style="rounded=0;whiteSpace=wrap;html=1;dashed=1;fontFamily=Tahoma;fontSize=20;fontColor=#000000;fillColor=#FFFFFF;" vertex="1" parent="1">
          <mxGeometry x="550" y="240" width="140" height="90" as="geometry" />
        </mxCell>
        <mxCell id="Jrue9S0TpO6nU7mHcI8S-21" value="营运&lt;br&gt;数据" style="rounded=1;whiteSpace=wrap;html=1;fontFamily=Tahoma;fontSize=14;fontColor=#FFFFFF;fillColor=#4473C5;" vertex="1" parent="1">
          <mxGeometry x="200" y="245" width="50" height="35" as="geometry" />
        </mxCell>
        <mxCell id="Jrue9S0TpO6nU7mHcI8S-22" value="车辆&lt;br&gt;轨迹" style="rounded=1;whiteSpace=wrap;html=1;fontFamily=Tahoma;fontSize=14;fontColor=#FFFFFF;fillColor=#4473C5;" vertex="1" parent="1">
          <mxGeometry x="270" y="245" width="50" height="35" as="geometry" />
        </mxCell>
        <mxCell id="Jrue9S0TpO6nU7mHcI8S-23" value="营运&lt;br&gt;数据" style="rounded=1;whiteSpace=wrap;html=1;fontFamily=Tahoma;fontSize=14;fontColor=#FFFFFF;fillColor=#4473C5;" vertex="1" parent="1">
          <mxGeometry x="200" y="245" width="50" height="35" as="geometry" />
        </mxCell>
        <mxCell id="Jrue9S0TpO6nU7mHcI8S-24" value="交易&lt;br&gt;流水" style="rounded=1;whiteSpace=wrap;html=1;fontFamily=Tahoma;fontSize=14;fontColor=#FFFFFF;fillColor=#4473C5;" vertex="1" parent="1">
          <mxGeometry x="200" y="290" width="50" height="35" as="geometry" />
        </mxCell>
        <mxCell id="Jrue9S0TpO6nU7mHcI8S-25" value="..." style="rounded=1;whiteSpace=wrap;html=1;fontFamily=Tahoma;fontSize=14;fontColor=#FFFFFF;fillColor=#4473C5;" vertex="1" parent="1">
          <mxGeometry x="270" y="290" width="50" height="35" as="geometry" />
        </mxCell>
        <mxCell id="Jrue9S0TpO6nU7mHcI8S-26" value="设备&lt;br&gt;状态" style="rounded=1;whiteSpace=wrap;html=1;fontFamily=Tahoma;fontSize=14;fontColor=#FFFFFF;fillColor=#4473C5;" vertex="1" parent="1">
          <mxGeometry x="450" y="245" width="50" height="35" as="geometry" />
        </mxCell>
        <mxCell id="Jrue9S0TpO6nU7mHcI8S-27" value="油耗&lt;br&gt;数据" style="rounded=1;whiteSpace=wrap;html=1;fontFamily=Tahoma;fontSize=14;fontColor=#FFFFFF;fillColor=#4473C5;" vertex="1" parent="1">
          <mxGeometry x="380" y="245" width="50" height="35" as="geometry" />
        </mxCell>
        <mxCell id="Jrue9S0TpO6nU7mHcI8S-28" value="环境&lt;br&gt;数据" style="rounded=1;whiteSpace=wrap;html=1;fontFamily=Tahoma;fontSize=14;fontColor=#FFFFFF;fillColor=#4473C5;" vertex="1" parent="1">
          <mxGeometry x="380" y="290" width="50" height="35" as="geometry" />
        </mxCell>
        <mxCell id="Jrue9S0TpO6nU7mHcI8S-29" value="..." style="rounded=1;whiteSpace=wrap;html=1;fontFamily=Tahoma;fontSize=14;fontColor=#FFFFFF;fillColor=#4473C5;" vertex="1" parent="1">
          <mxGeometry x="450" y="290" width="50" height="35" as="geometry" />
        </mxCell>
        <mxCell id="Jrue9S0TpO6nU7mHcI8S-30" value="违章&lt;br&gt;数据" style="rounded=1;whiteSpace=wrap;html=1;fontFamily=Tahoma;fontSize=14;fontColor=#FFFFFF;fillColor=#4473C5;" vertex="1" parent="1">
          <mxGeometry x="630" y="245" width="50" height="35" as="geometry" />
        </mxCell>
        <mxCell id="Jrue9S0TpO6nU7mHcI8S-31" value="检修&lt;br&gt;数据" style="rounded=1;whiteSpace=wrap;html=1;fontFamily=Tahoma;fontSize=14;fontColor=#FFFFFF;fillColor=#4473C5;" vertex="1" parent="1">
          <mxGeometry x="560" y="245" width="50" height="35" as="geometry" />
        </mxCell>
        <mxCell id="Jrue9S0TpO6nU7mHcI8S-32" value="行为&lt;br&gt;数据" style="rounded=1;whiteSpace=wrap;html=1;fontFamily=Tahoma;fontSize=14;fontColor=#FFFFFF;fillColor=#4473C5;" vertex="1" parent="1">
          <mxGeometry x="560" y="290" width="50" height="35" as="geometry" />
        </mxCell>
        <mxCell id="Jrue9S0TpO6nU7mHcI8S-33" value="..." style="rounded=1;whiteSpace=wrap;html=1;fontFamily=Tahoma;fontSize=14;fontColor=#FFFFFF;fillColor=#4473C5;" vertex="1" parent="1">
          <mxGeometry x="630" y="290" width="50" height="35" as="geometry" />
        </mxCell>
        <mxCell id="Jrue9S0TpO6nU7mHcI8S-34" value="" style="rounded=0;whiteSpace=wrap;html=1;dashed=1;fontFamily=Tahoma;fontSize=20;fontColor=#000000;fillColor=#FFFFFF;" vertex="1" parent="1">
          <mxGeometry x="730" y="240" width="140" height="90" as="geometry" />
        </mxCell>
        <mxCell id="Jrue9S0TpO6nU7mHcI8S-35" value="调派&lt;br&gt;数据" style="rounded=1;whiteSpace=wrap;html=1;fontFamily=Tahoma;fontSize=14;fontColor=#FFFFFF;fillColor=#4473C5;" vertex="1" parent="1">
          <mxGeometry x="810" y="245" width="50" height="35" as="geometry" />
        </mxCell>
        <mxCell id="Jrue9S0TpO6nU7mHcI8S-36" value="车辆&lt;br&gt;数据" style="rounded=1;whiteSpace=wrap;html=1;fontFamily=Tahoma;fontSize=14;fontColor=#FFFFFF;fillColor=#4473C5;" vertex="1" parent="1">
          <mxGeometry x="740" y="245" width="50" height="35" as="geometry" />
        </mxCell>
        <mxCell id="Jrue9S0TpO6nU7mHcI8S-37" value="订车&lt;br&gt;数据" style="rounded=1;whiteSpace=wrap;html=1;fontFamily=Tahoma;fontSize=14;fontColor=#FFFFFF;fillColor=#4473C5;" vertex="1" parent="1">
          <mxGeometry x="740" y="290" width="50" height="35" as="geometry" />
        </mxCell>
        <mxCell id="Jrue9S0TpO6nU7mHcI8S-38" value="..." style="rounded=1;whiteSpace=wrap;html=1;fontFamily=Tahoma;fontSize=14;fontColor=#FFFFFF;fillColor=#4473C5;" vertex="1" parent="1">
          <mxGeometry x="810" y="290" width="50" height="35" as="geometry" />
        </mxCell>
      </root>
    </mxGraphModel>
  </diagram>
</mxfile>
